PathFileType	4	(X/Y/Z)	s08c0302.trc
DataRate	CameraRate	NumFrames	NumMarkers	Units	OrigDataRate	OrigDataStartFrame	OrigNumFrames
200	200	7	50	mm	200	500	2000
Frame#	Time	racr			lacr			c7			jug			rlel			rdr			llel			ldr			s2			lic			ric			lasi			rasi			rpsi			lpsi			rgt			lgt			rth1			rth2			rth3			rth4			rlfc			rmfc			rsh1			rsh2			rsh3			rsh4			rlmal			rmmal			rcal			rtoe			rmt5			lth1			lth2			lth4			lth3			llfc			lmfc			llmal			lmmal			lcal			lmt5			lsh1			lsh2			lsh3			lsh4			ltoe			SBIKE			LBIKE			RBIKE			
		X1	Y1	Z1	X2	Y2	Z2	X3	Y3	Z3	X4	Y4	Z4	X5	Y5	Z5	X6	Y6	Z6	X7	Y7	Z7	X8	Y8	Z8	X9	Y9	Z9	X10	Y10	Z10	X11	Y11	Z11	X12	Y12	Z12	X13	Y13	Z13	X14	Y14	Z14	X15	Y15	Z15	X16	Y16	Z16	X17	Y17	Z17	X18	Y18	Z18	X19	Y19	Z19	X20	Y20	Z20	X21	Y21	Z21	X22	Y22	Z22	X23	Y23	Z23	X24	Y24	Z24	X25	Y25	Z25	X26	Y26	Z26	X27	Y27	Z27	X28	Y28	Z28	X29	Y29	Z29	X30	Y30	Z30	X31	Y31	Z31	X32	Y32	Z32	X33	Y33	Z33	X34	Y34	Z34	X35	Y35	Z35	X36	Y36	Z36	X37	Y37	Z37	X38	Y38	Z38	X39	Y39	Z39	X40	Y40	Z40	X41	Y41	Z41	X42	Y42	Z42	X43	Y43	Z43	X44	Y44	Z44	X45	Y45	Z45	X46	Y46	Z46	X47	Y47	Z47	X48	Y48	Z48	X49	Y49	Z49	X50	Y50	Z50	
500	2.5000	810.552006	1404.601087	-88.438206	808.977476	1376.938368	-411.260237	780.438680	1449.677817	-256.965870	752.042165	1290.208483	-231.548643	729.098359	1158.319729	40.568226	803.303908	888.534560	-54.119418	679.418758	1128.790530	-516.432376	805.789522	899.536650	-432.899466	215.761120	1242.370821	-211.053898	380.050632	1200.921949	-358.608482	381.942651	1265.515864	-49.588363	397.821427	1158.085423	-315.412191	394.165672	1194.502486	-75.232590	249.347423	1287.035523	-164.667092	252.848378	1275.318267	-259.851811	291.581034	1149.988657	-1.741389	302.677981	1093.765223	-373.964689	409.394179	1013.907163	7.885329	482.115202	962.577084	2.517313	518.143117	883.880809	-5.602773	508.806365	985.626748	-7.607636	572.568190	790.116589	-24.910523	560.751910	791.497976	-138.486364	456.823489	733.603925	-4.602080	398.664658	670.506596	-32.649371	317.521165	644.480561	-43.005160	419.847553	650.804201	-62.021331	214.149897	590.456026	-58.444035	243.953746	592.533238	-143.656854	151.567221	639.800102	-108.029119	287.217202	372.471751	-107.860864	218.959213	437.763367	-40.439424	343.285792	968.740368	-389.826145	388.530496	894.293315	-388.109591	422.383822	903.837788	-378.277357	388.495085	805.882520	-390.246784	411.193120	680.829369	-372.835171	398.693618	652.985477	-274.821485	286.734077	282.985402	-402.742571	330.978651	304.688356	-331.826049	220.732439	281.021464	-368.436274	397.753702	156.348365	-420.342703	370.916627	558.835938	-407.821037	369.186205	473.891743	-396.979759	326.504495	396.689727	-403.221267	388.459784	470.085616	-362.115404	483.837058	161.729444	-350.632429	-144.372220	936.198875	-226.198701	10.231293	79.805174	-424.957581	10.482718	80.495325	-27.167410	
501	2.5050	807.938458	1407.609134	-82.443901	817.800087	1383.524676	-416.487200	780.155475	1452.753118	-252.020925	751.933563	1293.222475	-226.518662	727.828431	1158.538173	41.520628	803.366575	888.778247	-54.181732	684.444265	1132.642064	-515.756473	806.859345	899.330887	-432.162663	215.675040	1240.299468	-215.299798	384.044071	1198.411205	-359.494607	378.624383	1266.971688	-51.801731	400.294309	1154.671809	-315.830512	392.109783	1195.548923	-77.382502	248.464705	1285.564643	-169.074275	253.588524	1272.757949	-264.195198	290.110921	1150.637218	-3.675673	304.402503	1091.801094	-375.295816	410.771195	1017.546071	6.784224	484.634951	967.582102	2.386069	522.336450	889.723619	-5.362115	511.315042	991.468091	-7.020282	578.882259	797.147458	-24.277397	567.664497	797.870875	-138.090862	463.542664	740.904993	-4.176035	405.560342	677.627560	-32.185124	324.288027	651.700739	-42.721725	426.842605	657.541963	-61.124230	221.149366	596.385756	-58.505290	251.003575	598.831492	-143.770608	157.532889	645.074326	-107.978281	297.741341	380.330509	-107.330078	227.953062	443.973766	-40.637506	341.184458	966.758078	-391.308993	384.469313	891.076312	-389.869554	418.543595	899.611367	-379.936287	382.184354	802.628598	-392.338268	402.066218	676.800200	-374.577060	389.199157	649.078684	-277.035761	279.521582	278.348160	-404.275219	324.413362	300.228672	-333.911633	214.066772	277.747539	-370.389028	389.419573	149.845398	-420.238295	361.862363	554.618878	-409.839070	360.679169	469.755427	-399.160857	318.402956	392.267267	-405.204430	380.019111	465.901155	-364.129028	475.134391	154.418827	-350.090769	-144.615147	936.157819	-226.225709	10.210454	79.818506	-424.992212	10.482696	80.486278	-27.205142	
502	2.5100	805.308478	1410.547069	-76.366406	819.470884	1387.556838	-411.090344	779.802619	1455.784943	-247.033998	751.650603	1296.018377	-221.571289	726.848072	1158.570946	42.428484	803.509346	889.035012	-54.205092	689.985558	1136.339678	-513.543555	807.889956	899.253073	-431.268574	216.307334	1238.432779	-219.389008	388.250857	1196.578097	-360.053110	375.590184	1268.588116	-53.547535	402.785562	1152.042236	-316.413262	392.072634	1197.713308	-77.225396	247.906013	1284.718858	-172.451129	254.527099	1270.708450	-268.484948	288.880464	1151.596351	-5.695589	305.934041	1090.340630	-376.700480	412.272069	1021.378791	5.553279	487.120619	972.632422	1.569787	526.414475	895.779392	-5.459702	513.463038	997.121166	-7.160603	584.713279	804.093170	-23.800798	574.097408	804.092178	-137.767232	469.897736	748.071242	-3.874617	412.142438	684.602611	-31.954579	330.953999	658.347635	-42.561169	433.517411	664.155861	-60.237461	227.966990	601.735022	-58.679728	257.668215	604.681017	-143.950626	163.522745	649.610856	-108.055813	307.453656	386.537864	-108.542427	237.645746	449.649955	-40.787564	339.073910	965.164190	-392.735918	380.441940	888.422929	-391.752561	414.697816	896.064765	-381.645762	377.316962	799.382340	-393.325390	392.946490	673.545149	-376.472719	379.476722	645.881701	-279.216638	272.144280	274.307049	-405.567692	317.177063	296.690177	-335.260648	207.438738	275.372291	-371.474892	380.469372	143.902595	-420.121207	352.859327	551.455523	-412.094053	352.066079	466.468034	-401.539404	310.150410	388.755299	-407.331465	371.487702	462.679064	-366.441821	466.178963	147.167433	-349.834908	-144.796072	936.250154	-226.559290	10.191129	79.823727	-425.030619	10.446170	80.507076	-27.226341	
503	2.5150	802.600646	1413.355672	-70.355084	820.767027	1391.635744	-405.546752	779.427498	1458.969574	-242.064867	751.207267	1298.586827	-216.716721	725.712447	1158.759032	43.208194	803.736239	889.317829	-54.266529	693.070324	1140.309542	-514.191518	808.954238	899.147129	-430.292402	216.959789	1237.331179	-223.735067	392.548826	1195.524848	-360.322184	372.534500	1270.075751	-55.634021	405.517972	1149.466029	-317.643120	392.553905	1199.896813	-77.693851	247.995350	1283.319941	-177.869515	255.803960	1269.319049	-272.737438	287.666376	1152.813299	-7.921805	307.288367	1089.381860	-378.121709	413.699246	1025.413751	4.333418	489.539327	978.094738	1.204865	530.280230	901.918591	-5.979229	515.383022	1002.815286	-7.637115	590.139090	810.990484	-23.331238	579.997011	810.271637	-137.639822	476.004532	754.994662	-3.813250	418.516326	691.148575	-31.584761	337.471801	664.630127	-42.351852	440.172681	670.437595	-59.344642	234.801783	606.440858	-58.927701	264.564329	610.129567	-144.024097	169.510701	653.379731	-108.179474	318.226455	393.206180	-108.947065	247.265760	454.930353	-41.023578	337.344860	964.646065	-395.629987	376.569177	886.196285	-393.696912	410.938479	892.999119	-383.384908	371.286571	797.287480	-395.814976	383.592739	671.290014	-378.851193	369.845823	643.594695	-281.470779	264.435984	271.198904	-406.570739	308.627467	294.092252	-335.732534	200.797753	273.793286	-372.666770	371.572632	138.817912	-420.069141	343.802294	548.764132	-414.351529	343.348994	463.961073	-403.581353	301.690495	386.033606	-409.271194	362.849602	460.340795	-368.724819	456.790663	140.664511	-349.178679	-144.839834	936.131665	-226.702007	10.169005	79.811731	-425.036571	10.441142	80.517605	-27.254901	
504	2.5200	799.876198	1416.088656	-64.350777	821.785218	1395.512075	-400.172959	778.907144	1462.256458	-236.982754	750.617842	1300.918464	-211.965144	724.447339	1158.941887	43.827658	804.021482	889.791660	-54.368092	698.018039	1143.972171	-511.721605	810.112269	899.140194	-429.418356	218.185903	1236.827708	-227.964838	396.486811	1195.411756	-360.742230	369.729905	1271.989059	-57.408738	407.844079	1148.167491	-318.627016	391.718390	1201.986197	-79.300005	247.462832	1283.283977	-182.116831	257.308245	1268.483841	-276.784069	286.930678	1154.448699	-10.222582	308.498957	1088.822041	-379.569408	415.135501	1029.584315	3.052519	491.601672	983.411714	0.601861	533.836335	907.744341	-6.259169	517.729565	1008.662567	-8.184696	595.353502	817.681912	-23.217822	585.488340	816.392925	-137.402150	481.702685	761.573629	-4.014160	424.760069	697.179850	-31.441543	343.924946	670.016173	-42.307652	446.055465	676.636918	-58.438564	241.721835	610.602874	-59.138324	271.529477	614.792250	-144.235348	175.464921	656.451374	-108.380320	329.396928	399.761040	-108.619769	257.073148	459.540807	-41.210462	335.728308	964.258705	-397.848736	372.920644	884.649127	-395.709918	407.316371	890.518123	-385.102611	365.368543	795.921081	-398.517922	374.456292	669.437403	-380.912508	359.521308	642.616571	-283.860067	256.695076	268.966170	-407.476060	300.958088	291.660979	-336.869358	194.339264	273.033129	-374.065290	362.415221	134.295593	-419.943057	334.461798	547.006583	-416.409185	334.560474	461.938563	-405.359337	293.394410	383.961650	-410.994708	354.225914	458.560927	-370.658250	447.229110	134.594920	-348.474818	-144.970030	936.194173	-226.804440	10.155991	79.856477	-425.074469	10.432089	80.534864	-27.260245	
505	2.5250	797.144741	1418.576273	-58.524257	822.759921	1399.187108	-394.844079	778.382826	1465.219684	-231.817969	749.896368	1303.004292	-207.326787	723.149380	1159.008138	44.561974	804.372865	890.393153	-54.472439	702.832828	1147.297443	-508.921368	810.506427	897.649266	-425.935991	219.170481	1236.615791	-231.730737	400.057253	1196.148407	-361.131517	367.092356	1273.469947	-59.292498	409.923077	1147.630054	-318.961915	391.014604	1204.152792	-81.090660	247.139078	1283.073453	-186.821695	259.430589	1268.167773	-280.479098	286.432254	1156.490037	-12.767773	309.732442	1088.701161	-381.197472	416.280152	1033.863761	1.387080	493.409027	988.805164	-0.222912	537.036605	913.738317	-6.316016	519.187824	1014.316712	-9.295764	600.242754	824.387209	-22.888652	590.743902	821.385027	-134.134251	487.229477	767.505269	-4.191422	430.872338	702.507576	-31.371630	350.273927	674.574679	-42.355187	452.270556	681.903633	-58.321528	248.709875	614.018275	-59.367822	278.556944	618.706302	-144.428581	181.463931	658.828266	-108.624032	340.283323	404.793456	-109.542019	267.159742	463.667223	-41.349245	334.351018	964.357169	-399.722463	369.560330	883.797936	-397.865335	403.985397	888.706652	-386.860944	359.832931	795.300975	-401.396181	365.475733	668.225715	-382.945176	351.023211	640.969271	-285.671627	249.306134	267.616006	-408.336936	293.977960	289.744683	-338.103087	188.092830	273.437275	-375.032258	352.936387	130.280334	-419.909857	325.135336	545.767655	-418.207807	326.034477	461.039386	-407.420168	285.321067	382.613939	-412.706915	345.720682	457.455772	-372.218809	437.457349	128.794310	-348.215977	-145.007091	936.202694	-226.696538	10.133681	79.895851	-425.061644	10.441085	80.539139	-27.252534	
506	2.5300	794.798890	1421.408005	-51.413263	823.388997	1402.612858	-389.457822	777.747154	1468.245365	-226.644004	749.057011	1304.834827	-202.811817	721.699323	1159.040274	45.658592	804.733058	891.282507	-54.574536	708.275145	1150.280249	-504.799164	811.625223	897.728987	-425.263059	220.497548	1237.081281	-235.536283	403.587346	1197.588668	-361.727823	364.340510	1275.605496	-60.969742	412.430619	1147.561932	-320.114631	390.512374	1206.530529	-83.018819	248.092595	1284.292162	-190.356000	261.526678	1268.315447	-284.381364	286.366983	1159.157365	-15.340991	311.123149	1089.181729	-383.031401	417.314525	1038.035614	-0.520561	495.005709	994.155115	-1.436836	539.949214	919.695474	-6.714210	519.932097	1019.582004	-11.137642	604.862928	831.065606	-22.705128	595.483638	827.586987	-134.142256	492.554103	772.805233	-4.548703	436.874490	707.053951	-31.461631	356.584597	678.387585	-42.431614	458.376263	686.575324	-58.395406	255.606066	616.650983	-59.513359	285.660602	621.880195	-144.538820	187.436818	660.353411	-108.875231	351.697250	409.976388	-109.596204	277.431424	467.119929	-41.495978	333.325026	965.091038	-401.799342	366.582196	883.696031	-400.166142	401.031962	887.692776	-388.687121	354.240940	795.365140	-404.532052	356.903364	667.801126	-385.097266	342.322513	640.276151	-287.126817	242.302098	267.036293	-408.920372	287.515452	288.753936	-339.187712	182.321734	274.773283	-375.492611	343.189985	127.035886	-419.736602	316.026580	545.868798	-420.968263	317.630591	460.907734	-409.258553	277.381743	382.187280	-414.345278	337.403644	458.001063	-374.832225	427.510165	123.277576	-347.927521	-145.103118	936.207693	-226.534780	10.144146	79.940136	-425.049191	10.449071	80.560476	-27.242623	
